<svg xmlns="http://www.w3.org/2000/svg" width="320" height="180" viewBox="0 0 320 180">
  <rect width="320" height="180" fill="#0c1424"/>
  <!-- 창고 바닥 그리드 -->
  <g fill="#1a2238" stroke="#2c3550" stroke-width="2">
    <rect x="88" y="28" width="36" height="36"/><rect x="126" y="28" width="36" height="36"/>
    <rect x="164" y="28" width="36" height="36"/><rect x="202" y="28" width="36" height="36"/>
    <rect x="88" y="66" width="36" height="36"/><rect x="126" y="66" width="36" height="36"/>
    <rect x="164" y="66" width="36" height="36"/><rect x="202" y="66" width="36" height="36"/>
  </g>
  <!-- 목표칸 -->
  <rect x="206" y="32" width="28" height="28" fill="none" stroke="#eab308" stroke-width="3"/>
  <!-- 목표에 안착한 상자 -->
  <g>
    <rect x="206" y="70" width="28" height="28" fill="#a16232" stroke="#22c55e" stroke-width="3"/>
    <path d="M206 70 L234 98 M234 70 L206 98" stroke="#7c4a24" stroke-width="3"/>
  </g>
  <!-- 밀리는 상자 -->
  <g>
    <rect x="130" y="32" width="28" height="28" fill="#a16232" stroke="#7c4a24" stroke-width="3"/>
    <path d="M130 32 L158 60 M158 32 L130 60" stroke="#7c4a24" stroke-width="3"/>
  </g>
  <path d="M166 46 h22 m-8 -7 l8 7 l-8 7" fill="none" stroke="#0ea5e9" stroke-width="4" stroke-linecap="round" stroke-linejoin="round"/>
  <!-- 플레이어 -->
  <circle cx="106" cy="46" r="13" fill="#e8d48a"/>
  <circle cx="101" cy="43" r="2" fill="#0c1424"/><circle cx="111" cy="43" r="2" fill="#0c1424"/>
  <path d="M100 50 q6 5 12 0" fill="none" stroke="#0c1424" stroke-width="2" stroke-linecap="round"/>
  <!-- 벽 -->
  <g fill="#2c3550">
    <rect x="50" y="28" width="36" height="36"/><rect x="50" y="66" width="36" height="36"/>
    <rect x="240" y="28" width="36" height="36"/><rect x="240" y="66" width="36" height="36"/>
  </g>
  <g stroke="#0c1424" stroke-width="2">
    <path d="M50 46 h36 M50 84 h36 M240 46 h36 M240 84 h36"/>
    <path d="M68 28 v18 M58 46 v18 M78 46 v18 M68 64 v2 M258 28 v18 M248 46 v18 M268 46 v18"/>
  </g>
  <text x="160" y="150" font-family="monospace" font-size="24" font-weight="bold" fill="#0ea5e9" text-anchor="middle">창고 대이동</text>
  <text x="160" y="168" font-family="monospace" font-size="11" fill="#8e9db0" text-anchor="middle">SOKOBAN · 24 LEVELS</text>
</svg>
