<svg xmlns="http://www.w3.org/2000/svg" width="320" height="180" viewBox="0 0 320 180">
  <rect width="320" height="180" fill="#0c1424"/>
  <circle cx="240" cy="95" r="72" fill="#d4a24e" opacity=".06"/>
  <circle cx="88" cy="130" r="40" fill="#0ea5e9" opacity=".05"/>

  <!-- 카드 부채꼴 -->
  <g transform="translate(240,112)">
    <g transform="rotate(-16)">
      <g transform="translate(-64,-46)">
        <rect width="56" height="80" rx="7" fill="#dce4ef" stroke="#9aa5ba" stroke-width="2"/>
        <text x="9" y="25" font-family="monospace" font-size="17" font-weight="bold" fill="#232a3d">K</text>
        <text x="34" y="70" font-family="monospace" font-size="21" fill="#232a3d">&#9824;</text>
      </g>
    </g>
    <g transform="rotate(2)">
      <g transform="translate(-28,-54)">
        <rect width="56" height="80" rx="7" fill="#f4f7fb" stroke="#9aa5ba" stroke-width="2"/>
        <text x="9" y="25" font-family="monospace" font-size="17" font-weight="bold" fill="#ef4444">A</text>
        <text x="34" y="70" font-family="monospace" font-size="21" fill="#ef4444">&#9829;</text>
        <circle cx="46" cy="13" r="4" fill="#d4a24e"/>
      </g>
    </g>
    <g transform="rotate(20)">
      <g transform="translate(8,-46)">
        <rect width="56" height="80" rx="7" fill="#dce4ef" stroke="#9aa5ba" stroke-width="2"/>
        <text x="9" y="25" font-family="monospace" font-size="17" font-weight="bold" fill="#ef4444">A</text>
        <text x="34" y="70" font-family="monospace" font-size="21" fill="#ef4444">&#9830;</text>
      </g>
    </g>
    <path d="M-70 -62 l3 7 7 3 -7 3 -3 7 -3 -7 -7 -3 7 -3 z" fill="#d4a24e" opacity=".85"/>
    <circle cx="58" cy="-64" r="3" fill="#0ea5e9" opacity=".8"/>
  </g>

  <!-- 연금 플라스크 -->
  <g transform="translate(88,140)">
    <clipPath id="fl">
      <path d="M-7 -36 h14 v13 l17 32 q3 6 -4 6 h-40 q-7 0 -4 -6 l17 -32 z"/>
    </clipPath>
    <path d="M-7 -36 h14 v13 l17 32 q3 6 -4 6 h-40 q-7 0 -4 -6 l17 -32 z" fill="#16203a"/>
    <g clip-path="url(#fl)">
      <rect x="-32" y="-1" width="64" height="18" fill="#d4a24e"/>
      <rect x="-32" y="-1" width="64" height="3" fill="#eab308" opacity=".7"/>
    </g>
    <path d="M-7 -36 h14 v13 l17 32 q3 6 -4 6 h-40 q-7 0 -4 -6 l17 -32 z"
          fill="none" stroke="#0ea5e9" stroke-width="2.5" stroke-linejoin="round"/>
    <rect x="-10" y="-40" width="20" height="5" rx="2.5" fill="#0ea5e9"/>
    <circle cx="-4" cy="-9" r="2.4" fill="#d4a24e" opacity=".85"/>
    <circle cx="4" cy="-17" r="1.8" fill="#d4a24e" opacity=".65"/>
    <circle cx="0" cy="-26" r="1.3" fill="#d4a24e" opacity=".45"/>
  </g>

  <!-- 타이틀 -->
  <text x="90" y="66" font-family="monospace" font-size="22" font-weight="bold" fill="#000" text-anchor="middle" transform="translate(2,2)">족보 연성소</text>
  <text x="90" y="66" font-family="monospace" font-size="22" font-weight="bold" fill="#e6ecf2" text-anchor="middle">족보 연성소</text>
  <text x="90" y="88" font-family="monospace" font-size="11" fill="#0ea5e9" text-anchor="middle">포커 족보 로그라이크 &#9883;</text>
</svg>
