<svg xmlns="http://www.w3.org/2000/svg" width="320" height="180" viewBox="0 0 320 180">
  <defs>
    <linearGradient id="sky" x1="0" y1="0" x2="0" y2="1">
      <stop offset="0" stop-color="#0c1424"/>
      <stop offset="1" stop-color="#1a2238"/>
    </linearGradient>
    <linearGradient id="sea" x1="0" y1="0" x2="0" y2="1">
      <stop offset="0" stop-color="#14283f"/>
      <stop offset="1" stop-color="#0a1226"/>
    </linearGradient>
    <radialGradient id="glow" cx="0.5" cy="0.5" r="0.5">
      <stop offset="0" stop-color="#cbd5e1" stop-opacity="0.4"/>
      <stop offset="1" stop-color="#cbd5e1" stop-opacity="0"/>
    </radialGradient>
  </defs>
  <rect width="320" height="180" fill="url(#sky)"/>
  <g fill="#dbe4f2">
    <rect x="22" y="16" width="2" height="2"/><rect x="58" y="30" width="2" height="2"/>
    <rect x="96" y="12" width="3" height="3"/><rect x="138" y="26" width="2" height="2"/>
    <rect x="184" y="14" width="2" height="2"/><rect x="300" y="34" width="2" height="2"/>
    <rect x="40" y="52" width="2" height="2"/><rect x="120" y="46" width="2" height="2"/>
  </g>
  <g fill="#eab308">
    <rect x="74" y="22" width="2" height="2"/><rect x="160" y="38" width="2" height="2"/>
  </g>
  <g fill="#0ea5e9">
    <rect x="108" y="30" width="2" height="2"/><rect x="206" y="24" width="3" height="3"/>
  </g>
  <circle cx="252" cy="46" r="42" fill="url(#glow)"/>
  <circle cx="252" cy="46" r="24" fill="#e8edf5"/>
  <circle cx="245" cy="40" r="4.5" fill="#c3cbd8"/>
  <circle cx="259" cy="52" r="3" fill="#c3cbd8"/>
  <circle cx="250" cy="56" r="2" fill="#c3cbd8"/>
  <rect x="0" y="108" width="320" height="72" fill="url(#sea)"/>
  <rect x="0" y="108" width="320" height="1.5" fill="#cbd5e1" opacity="0.25"/>
  <g fill="#cbd5e1">
    <rect x="238" y="116" width="28" height="2" opacity="0.30"/>
    <rect x="244" y="126" width="18" height="2" opacity="0.22"/>
    <rect x="234" y="136" width="34" height="2" opacity="0.16"/>
    <rect x="246" y="148" width="16" height="2" opacity="0.12"/>
    <rect x="240" y="158" width="26" height="2" opacity="0.08"/>
  </g>
  <g stroke="#0ea5e9" stroke-width="1.5" fill="none" opacity="0.35">
    <path d="M0 122 Q20 119 40 122 T80 122 T120 122 T160 122 T200 122"/>
    <path d="M0 146 Q25 143 50 146 T100 146 T150 146 T200 146 T250 146 T300 146"/>
  </g>
  <rect x="10" y="128" width="6" height="30" fill="#2c2418"/>
  <rect x="52" y="128" width="6" height="30" fill="#2c2418"/>
  <rect x="0" y="118" width="72" height="12" fill="#3a2f22"/>
  <rect x="0" y="118" width="72" height="3" fill="#5a4c36"/>
  <path d="M40 116 L118 56" stroke="#8a6a3c" stroke-width="3" stroke-linecap="round"/>
  <path d="M118 56 Q150 70 152 108" stroke="#cbd5e1" stroke-width="1.2" fill="none" opacity="0.7"/>
  <rect x="148" y="106" width="8" height="7" fill="#eab308"/>
  <rect x="148" y="113" width="8" height="6" fill="#cbd5e1"/>
  <ellipse cx="152" cy="126" rx="16" ry="5" fill="none" stroke="#7dd3fc" stroke-width="1.5" opacity="0.45"/>
  <g fill="#0ea5e9" opacity="0.4">
    <ellipse cx="186" cy="140" rx="17" ry="6"/>
    <path d="M203 140 L212 134 L212 146 Z"/>
    <ellipse cx="120" cy="152" rx="11" ry="4"/>
    <path d="M131 152 L138 148 L138 156 Z"/>
  </g>
  <text x="160" y="172" font-family="monospace" font-size="17" font-weight="bold" fill="#cbd5e1" text-anchor="middle">달빛 낚시터</text>
</svg>
