<svg xmlns="http://www.w3.org/2000/svg" viewBox="0 0 320 180">
  <rect width="320" height="180" fill="#0c1424"/>
  <g font-family="monospace" font-size="11" fill="#c2cedc" text-anchor="middle">
    <text x="118" y="30">2</text><text x="140" y="30">4</text><text x="162" y="30">1 2</text><text x="184" y="30">3</text><text x="206" y="30">1</text>
    <text x="92" y="52">3</text><text x="92" y="74">1 1</text><text x="92" y="96">4</text><text x="92" y="118">2</text>
  </g>
  <g>
    <rect x="108" y="38" width="20" height="20" fill="#0ea5e9"/><rect x="130" y="38" width="20" height="20" fill="#0ea5e9"/>
    <rect x="152" y="38" width="20" height="20" fill="#0ea5e9"/><rect x="174" y="38" width="20" height="20" fill="#1a2238"/>
    <rect x="196" y="38" width="20" height="20" fill="#1a2238"/>
    <rect x="108" y="60" width="20" height="20" fill="#0ea5e9"/><rect x="130" y="60" width="20" height="20" fill="#1a2238"/>
    <rect x="152" y="60" width="20" height="20" fill="#0ea5e9"/><rect x="174" y="60" width="20" height="20" fill="#1a2238"/>
    <rect x="196" y="60" width="20" height="20" fill="#1a2238"/>
    <rect x="108" y="82" width="20" height="20" fill="#0ea5e9"/><rect x="130" y="82" width="20" height="20" fill="#0ea5e9"/>
    <rect x="152" y="82" width="20" height="20" fill="#0ea5e9"/><rect x="174" y="82" width="20" height="20" fill="#0ea5e9"/>
    <rect x="196" y="82" width="20" height="20" fill="#1a2238"/>
    <rect x="108" y="104" width="20" height="20" fill="#1a2238"/><rect x="130" y="104" width="20" height="20" fill="#0ea5e9"/>
    <rect x="152" y="104" width="20" height="20" fill="#0ea5e9"/><rect x="174" y="104" width="20" height="20" fill="#1a2238"/>
    <rect x="196" y="104" width="20" height="20" fill="#1a2238"/>
  </g>
  <text x="160" y="164" font-family="AppleSDGothicNeo,Malgun Gothic,sans-serif" font-weight="bold" font-size="15" fill="#0ea5e9" text-anchor="middle">⛏ 네모 채굴 — 숫자로 캐는 그림</text>
</svg>
